<mxfile host="app.diagrams.net" modified="2022-10-17T17:38:49.610Z" agent="5.0 (Macintosh)" etag="Z0f36oWlqYO9RakXBQx0" version="20.4.1" type="github">
  <diagram id="FBTlA72vC8UY698nI0QQ" name="Page-1">
    <mxGraphModel dx="1868" dy="599" grid="1" gridSize="10" guides="1" tooltips="1" connect="1" arrows="1" fold="1" page="1" pageScale="1" pageWidth="850" pageHeight="1100" math="0" shadow="0">
      <root>
        <mxCell id="0" />
        <mxCell id="1" parent="0" />
        <mxCell id="Rquj8ajDDeOmUkiDkYnA-19" value="" style="rounded=0;whiteSpace=wrap;html=1;fillColor=#dae8fc;strokeColor=#6c8ebf;" parent="1" vertex="1">
          <mxGeometry x="60" y="200" width="200" height="470" as="geometry" />
        </mxCell>
        <object label="" placeholders="1" MIC_PURPOSE="B3 or E6" MIC_MODEL="Countryman" TX_MODEL="Shure ULX1" TX_ID="Wireless TX01" RF_FREQ="" RX_ID="Wireless RX01" RX_MODEL="Shure ULX-S" MIC_ID="X" id="Rquj8ajDDeOmUkiDkYnA-1">
          <mxCell style="group" parent="1" vertex="1" connectable="0">
            <mxGeometry x="-30.000000000000057" y="240" width="917.3299999999999" height="80" as="geometry" />
          </mxCell>
        </object>
        <mxCell id="Rquj8ajDDeOmUkiDkYnA-2" value="" style="verticalLabelPosition=bottom;verticalAlign=top;html=1;shape=mxgraph.basic.flash;rounded=0;shadow=0;glass=0;comic=0;startSize=28;strokeColor=#000000;fillColor=none;gradientColor=none;fontSize=14;align=left;" parent="Rquj8ajDDeOmUkiDkYnA-1" vertex="1">
          <mxGeometry x="597.3299999999999" width="30" height="50" as="geometry" />
        </mxCell>
        <object label="%TX_MODEL%&lt;br&gt;%TX_ID%" placeholders="1" id="Rquj8ajDDeOmUkiDkYnA-3">
          <mxCell style="swimlane;fontSize=20;align=center;startSize=28;fontStyle=0;verticalAlign=bottom;spacingBottom=0;spacing=3;html=1;" parent="Rquj8ajDDeOmUkiDkYnA-1" vertex="1">
            <mxGeometry x="307.33" y="14.339999999999975" width="200" height="65.66" as="geometry" />
          </mxCell>
        </object>
        <mxCell id="Rquj8ajDDeOmUkiDkYnA-4" value="Input" style="text;strokeColor=none;fillColor=none;spacingLeft=4;spacingRight=4;overflow=hidden;rotatable=0;points=[[0,0.5],[1,0.5]];portConstraint=west;fontSize=14;align=left;rounded=0;shadow=0;glass=0;comic=0;startSize=28;html=1;" parent="Rquj8ajDDeOmUkiDkYnA-3" vertex="1">
          <mxGeometry y="28.880000000000052" width="78.74" height="27.558999999999997" as="geometry" />
        </mxCell>
        <mxCell id="Rquj8ajDDeOmUkiDkYnA-5" value="Input" style="text;strokeColor=none;fillColor=none;spacingLeft=4;spacingRight=4;overflow=hidden;rotatable=0;points=[[0,0.5],[1,0.5]];portConstraint=west;fontSize=14;align=left;rounded=0;shadow=0;glass=0;comic=0;startSize=28;html=1;" parent="Rquj8ajDDeOmUkiDkYnA-3" vertex="1">
          <mxGeometry x="158.74" y="28.880000000000052" width="78.74" height="27.558999999999997" as="geometry" />
        </mxCell>
        <mxCell id="Rquj8ajDDeOmUkiDkYnA-6" style="edgeStyle=orthogonalEdgeStyle;rounded=0;orthogonalLoop=1;jettySize=auto;html=1;entryX=0;entryY=0.5;entryDx=0;entryDy=0;startSize=28;fontSize=14;" parent="Rquj8ajDDeOmUkiDkYnA-1" source="Rquj8ajDDeOmUkiDkYnA-11" target="Rquj8ajDDeOmUkiDkYnA-4" edge="1">
          <mxGeometry relative="1" as="geometry" />
        </mxCell>
        <object label="%RX_MODEL%&lt;br&gt;%RX_ID%" placeholders="1" id="Rquj8ajDDeOmUkiDkYnA-7">
          <mxCell style="swimlane;fontSize=20;align=center;startSize=28;fontStyle=0;verticalAlign=bottom;spacingBottom=0;spacing=3;html=1;" parent="Rquj8ajDDeOmUkiDkYnA-1" vertex="1">
            <mxGeometry x="717.3299999999999" y="14.339999999999975" width="200" height="65.66" as="geometry" />
          </mxCell>
        </object>
        <mxCell id="Rquj8ajDDeOmUkiDkYnA-8" value="Output&#xa;" style="text;strokeColor=none;fillColor=none;spacingLeft=4;spacingRight=4;overflow=hidden;rotatable=0;points=[[0,0.5],[1,0.5]];portConstraint=east;fontSize=14;align=right;rounded=0;shadow=0;glass=0;comic=0;startSize=28;html=1;" parent="Rquj8ajDDeOmUkiDkYnA-7" vertex="1">
          <mxGeometry x="121.25999999999999" y="28.880000000000052" width="78.74" height="27.558999999999997" as="geometry" />
        </mxCell>
        <mxCell id="Rquj8ajDDeOmUkiDkYnA-9" value="%RF_FREQ%" style="text;html=1;align=center;verticalAlign=middle;resizable=0;points=[];autosize=1;fontSize=14;" parent="Rquj8ajDDeOmUkiDkYnA-1" vertex="1">
          <mxGeometry x="557.3299999999999" y="60" width="110" height="20" as="geometry" />
        </mxCell>
        <mxCell id="Rquj8ajDDeOmUkiDkYnA-10" value="" style="verticalLabelPosition=bottom;shadow=0;dashed=0;align=center;fillColor=#ffffff;html=1;verticalAlign=top;strokeWidth=1;shape=mxgraph.electrical.radio.microphone_1;portConstraint=east;" parent="Rquj8ajDDeOmUkiDkYnA-1" vertex="1">
          <mxGeometry x="229.37" y="37" width="40" height="40" as="geometry" />
        </mxCell>
        <object label="%MIC_ID%" placeholders="1" id="Rquj8ajDDeOmUkiDkYnA-11">
          <mxCell style="text;html=1;align=center;verticalAlign=middle;resizable=0;points=[];autosize=1;fontSize=16;fontStyle=3" parent="Rquj8ajDDeOmUkiDkYnA-1" vertex="1">
            <mxGeometry x="230.00119999999998" y="47" width="39.37" height="20" as="geometry" />
          </mxCell>
        </object>
        <object label="%MIC_MODEL%" placeholders="1" id="Rquj8ajDDeOmUkiDkYnA-12">
          <mxCell style="text;html=1;align=right;verticalAlign=middle;resizable=0;points=[];autosize=1;fontSize=14;" parent="Rquj8ajDDeOmUkiDkYnA-1" vertex="1">
            <mxGeometry x="19.685000000000002" y="58.685" width="196.85" height="20" as="geometry" />
          </mxCell>
        </object>
        <object label="&lt;font style=&quot;font-size: 20px&quot;&gt;%MIC_PURPOSE%&lt;/font&gt;" placeholders="1" id="Rquj8ajDDeOmUkiDkYnA-13">
          <mxCell style="text;html=1;align=right;verticalAlign=middle;resizable=0;points=[];autosize=1;fontSize=18;" parent="Rquj8ajDDeOmUkiDkYnA-1" vertex="1">
            <mxGeometry y="30" width="220" height="30" as="geometry" />
          </mxCell>
        </object>
        <object label="" placeholders="1" SPK_PURPOSE="Test Speaker to Hear Sound" SPK_MODEL="Powered Monitor/Speaker" id="Rquj8ajDDeOmUkiDkYnA-14">
          <mxCell style="group" parent="1" vertex="1" connectable="0">
            <mxGeometry x="1050" y="273" width="230" height="40" as="geometry" />
          </mxCell>
        </object>
        <mxCell id="Rquj8ajDDeOmUkiDkYnA-15" value="" style="pointerEvents=1;verticalLabelPosition=bottom;shadow=0;dashed=0;align=center;fillColor=#ffffff;html=1;verticalAlign=top;strokeWidth=1;shape=stencil(tVbLUsMgFP0atk4KpnsHdeXeNU2oYUIgA7S1fy8FtINaaAuZyea+zj1cyAGAsB7ITAFsiJ5pZwB6BhDuiWJkw60b2sjgnW3jTUEm6j1vctfbKjJS5UPaKDnSA+tNqGFioIoZHz14H2xPJnoBzZN1nj+EOymE5cCk0P/E/+TaboQJE1F6X/les207UWOJOXeg/hlZx2A9PDr79e6e8I6e60xPhG00PRCEN6QbP5TciT7LfSanPUkmxQWT3NMzfb9pP/zDWciNLEbkTFxGLAdcxYDBLEJsFkZEFRDbcsSOS01vLYrPx691VdjNCogpijUOXAXE6qMvX1b1H7O+djTLAt6C53Q6Ka4uI6nUCG+lolcK+ZZx7u/Za66sQtlfQFML9Co/6++8/IAc1oWxu5h/Fzn3Fw==);rounded=0;glass=0;comic=0;startSize=28;fontSize=8;" parent="Rquj8ajDDeOmUkiDkYnA-14" vertex="1">
          <mxGeometry width="40" height="40" as="geometry" />
        </mxCell>
        <object label="&lt;span style=&quot;font-size: 18px&quot;&gt;%SPK_PURPOSE%&lt;/span&gt;" placeholders="1" id="Rquj8ajDDeOmUkiDkYnA-16">
          <mxCell style="text;html=1;align=left;verticalAlign=middle;resizable=0;points=[];autosize=1;fontSize=8;" parent="Rquj8ajDDeOmUkiDkYnA-14" vertex="1">
            <mxGeometry x="50" y="3.552713678800501e-15" width="180" height="20" as="geometry" />
          </mxCell>
        </object>
        <object label="%SPK_MODEL%" placeholders="1" id="Rquj8ajDDeOmUkiDkYnA-17">
          <mxCell style="text;html=1;align=left;verticalAlign=middle;resizable=0;points=[];autosize=1;fontSize=14;" parent="Rquj8ajDDeOmUkiDkYnA-14" vertex="1">
            <mxGeometry x="50" y="19.990000000000002" width="130" height="20" as="geometry" />
          </mxCell>
        </object>
        <mxCell id="Rquj8ajDDeOmUkiDkYnA-18" style="edgeStyle=orthogonalEdgeStyle;rounded=0;orthogonalLoop=1;jettySize=auto;html=1;exitX=1;exitY=0.5;exitDx=0;exitDy=0;entryX=0;entryY=0.6;entryDx=0;entryDy=0;entryPerimeter=0;" parent="1" source="Rquj8ajDDeOmUkiDkYnA-8" target="Rquj8ajDDeOmUkiDkYnA-15" edge="1">
          <mxGeometry relative="1" as="geometry" />
        </mxCell>
        <mxCell id="Rquj8ajDDeOmUkiDkYnA-20" value="&lt;div align=&quot;left&quot;&gt;Swap Elements&lt;br&gt;&lt;/div&gt;&lt;div&gt;&amp;nbsp;to test and label each element&lt;/div&gt;&lt;div&gt;&lt;br&gt;&lt;/div&gt;&lt;div align=&quot;left&quot;&gt;Label case with the following Info:&lt;/div&gt;&lt;div align=&quot;left&quot;&gt;&lt;ol&gt;&lt;li&gt;Model (B3/B6)&lt;/li&gt;&lt;li&gt;Sensitivity (Purple/Blue/Red Band)&lt;/li&gt;&lt;li&gt;Color&lt;/li&gt;&lt;li&gt;Tested Good/Bad&lt;/li&gt;&lt;li&gt;Date&lt;/li&gt;&lt;li&gt;Element Number&lt;/li&gt;&lt;/ol&gt;&lt;div&gt;Label Element on Connector with&lt;/div&gt;&lt;div&gt;Element ID # and make spreadsheet with all info above and Element ID # and storage location&lt;br&gt;&lt;/div&gt;&lt;/div&gt;" style="text;html=1;strokeColor=none;fillColor=none;align=center;verticalAlign=middle;whiteSpace=wrap;rounded=0;" parent="1" vertex="1">
          <mxGeometry x="70" y="330" width="180" height="280" as="geometry" />
        </mxCell>
        <mxCell id="Rquj8ajDDeOmUkiDkYnA-23" style="edgeStyle=orthogonalEdgeStyle;rounded=0;orthogonalLoop=1;jettySize=auto;html=1;" parent="1" source="Rquj8ajDDeOmUkiDkYnA-21" target="Rquj8ajDDeOmUkiDkYnA-22" edge="1">
          <mxGeometry relative="1" as="geometry" />
        </mxCell>
        <mxCell id="Rquj8ajDDeOmUkiDkYnA-21" value="Plug In Connector" style="rounded=1;whiteSpace=wrap;html=1;" parent="1" vertex="1">
          <mxGeometry x="305" y="390" width="120" height="60" as="geometry" />
        </mxCell>
        <mxCell id="Rquj8ajDDeOmUkiDkYnA-27" value="Yes" style="edgeStyle=orthogonalEdgeStyle;rounded=0;orthogonalLoop=1;jettySize=auto;html=1;entryX=0;entryY=0.5;entryDx=0;entryDy=0;" parent="1" source="Rquj8ajDDeOmUkiDkYnA-22" target="Rquj8ajDDeOmUkiDkYnA-25" edge="1">
          <mxGeometry relative="1" as="geometry" />
        </mxCell>
        <mxCell id="Rquj8ajDDeOmUkiDkYnA-28" value="No" style="edgeStyle=orthogonalEdgeStyle;rounded=0;orthogonalLoop=1;jettySize=auto;html=1;entryX=0.5;entryY=0;entryDx=0;entryDy=0;" parent="1" source="Rquj8ajDDeOmUkiDkYnA-22" target="Rquj8ajDDeOmUkiDkYnA-24" edge="1">
          <mxGeometry relative="1" as="geometry" />
        </mxCell>
        <mxCell id="Rquj8ajDDeOmUkiDkYnA-22" value="&lt;div&gt;Does it&lt;/div&gt;&lt;div&gt;work?&lt;/div&gt;" style="rhombus;whiteSpace=wrap;html=1;" parent="1" vertex="1">
          <mxGeometry x="500" y="380" width="80" height="80" as="geometry" />
        </mxCell>
        <mxCell id="Rquj8ajDDeOmUkiDkYnA-24" value="Label Bad" style="rounded=1;whiteSpace=wrap;html=1;" parent="1" vertex="1">
          <mxGeometry x="480" y="520" width="120" height="60" as="geometry" />
        </mxCell>
        <mxCell id="Rquj8ajDDeOmUkiDkYnA-29" style="edgeStyle=orthogonalEdgeStyle;rounded=0;orthogonalLoop=1;jettySize=auto;html=1;entryX=0;entryY=0.5;entryDx=0;entryDy=0;" parent="1" source="Rquj8ajDDeOmUkiDkYnA-25" target="Rquj8ajDDeOmUkiDkYnA-26" edge="1">
          <mxGeometry relative="1" as="geometry" />
        </mxCell>
        <mxCell id="Rquj8ajDDeOmUkiDkYnA-25" value="Wiggle Cable, working your way from one end to the other" style="rounded=1;whiteSpace=wrap;html=1;" parent="1" vertex="1">
          <mxGeometry x="650" y="390" width="120" height="60" as="geometry" />
        </mxCell>
        <mxCell id="Rquj8ajDDeOmUkiDkYnA-31" style="edgeStyle=orthogonalEdgeStyle;rounded=0;orthogonalLoop=1;jettySize=auto;html=1;" parent="1" source="Rquj8ajDDeOmUkiDkYnA-26" target="Rquj8ajDDeOmUkiDkYnA-30" edge="1">
          <mxGeometry relative="1" as="geometry" />
        </mxCell>
        <mxCell id="Rquj8ajDDeOmUkiDkYnA-33" style="edgeStyle=orthogonalEdgeStyle;rounded=0;orthogonalLoop=1;jettySize=auto;html=1;entryX=0;entryY=0.5;entryDx=0;entryDy=0;" parent="1" source="Rquj8ajDDeOmUkiDkYnA-26" target="Rquj8ajDDeOmUkiDkYnA-32" edge="1">
          <mxGeometry relative="1" as="geometry" />
        </mxCell>
        <mxCell id="Rquj8ajDDeOmUkiDkYnA-26" value="Does it Crackle?" style="rhombus;whiteSpace=wrap;html=1;" parent="1" vertex="1">
          <mxGeometry x="830" y="380" width="80" height="80" as="geometry" />
        </mxCell>
        <mxCell id="Rquj8ajDDeOmUkiDkYnA-30" value="Label Good" style="rounded=1;whiteSpace=wrap;html=1;" parent="1" vertex="1">
          <mxGeometry x="810" y="520" width="120" height="60" as="geometry" />
        </mxCell>
        <mxCell id="Rquj8ajDDeOmUkiDkYnA-35" style="edgeStyle=orthogonalEdgeStyle;rounded=0;orthogonalLoop=1;jettySize=auto;html=1;entryX=0.5;entryY=0;entryDx=0;entryDy=0;" parent="1" source="Rquj8ajDDeOmUkiDkYnA-32" target="Rquj8ajDDeOmUkiDkYnA-34" edge="1">
          <mxGeometry relative="1" as="geometry" />
        </mxCell>
        <mxCell id="Rquj8ajDDeOmUkiDkYnA-32" value="&lt;div&gt;Put A Piece of Red Spike Tape on the cable where&lt;/div&gt;&lt;div&gt;it is bad&lt;br&gt;&lt;/div&gt;" style="rounded=1;whiteSpace=wrap;html=1;" parent="1" vertex="1">
          <mxGeometry x="1010" y="390" width="120" height="60" as="geometry" />
        </mxCell>
        <mxCell id="Rquj8ajDDeOmUkiDkYnA-34" value="Label Bad" style="rounded=1;whiteSpace=wrap;html=1;" parent="1" vertex="1">
          <mxGeometry x="1010" y="520" width="120" height="60" as="geometry" />
        </mxCell>
        <mxCell id="Rquj8ajDDeOmUkiDkYnA-44" value="" style="group" parent="1" vertex="1" connectable="0">
          <mxGeometry x="60" y="720" width="280" height="140" as="geometry" />
        </mxCell>
        <mxCell id="Rquj8ajDDeOmUkiDkYnA-37" value="" style="rounded=0;whiteSpace=wrap;html=1;" parent="Rquj8ajDDeOmUkiDkYnA-44" vertex="1">
          <mxGeometry width="280" height="140" as="geometry" />
        </mxCell>
        <mxCell id="3Zzp8ogsjRMphogeBh2j-7" value="" style="rounded=0;whiteSpace=wrap;html=1;fontSize=20;fillColor=#f8cecc;strokeColor=#b85450;" vertex="1" parent="Rquj8ajDDeOmUkiDkYnA-44">
          <mxGeometry width="20" height="140" as="geometry" />
        </mxCell>
        <mxCell id="Rquj8ajDDeOmUkiDkYnA-38" value="" style="endArrow=none;html=1;rounded=0;exitX=0;exitY=0.25;exitDx=0;exitDy=0;entryX=1;entryY=0.25;entryDx=0;entryDy=0;" parent="Rquj8ajDDeOmUkiDkYnA-44" source="Rquj8ajDDeOmUkiDkYnA-37" target="Rquj8ajDDeOmUkiDkYnA-37" edge="1">
          <mxGeometry width="50" height="50" relative="1" as="geometry">
            <mxPoint x="480" y="20" as="sourcePoint" />
            <mxPoint x="530" y="-30" as="targetPoint" />
          </mxGeometry>
        </mxCell>
        <mxCell id="3Zzp8ogsjRMphogeBh2j-4" value="" style="rounded=0;whiteSpace=wrap;html=1;fontSize=60;fillColor=#FFF4C3;strokeColor=#b85450;" vertex="1" parent="Rquj8ajDDeOmUkiDkYnA-44">
          <mxGeometry width="280" height="35" as="geometry" />
        </mxCell>
        <mxCell id="Rquj8ajDDeOmUkiDkYnA-39" value="Theatre VCU" style="text;html=1;strokeColor=none;fillColor=none;align=center;verticalAlign=middle;whiteSpace=wrap;rounded=0;fontSize=25;" parent="Rquj8ajDDeOmUkiDkYnA-44" vertex="1">
          <mxGeometry width="180" height="35" as="geometry" />
        </mxCell>
        <mxCell id="3Zzp8ogsjRMphogeBh2j-3" value="" style="rounded=0;whiteSpace=wrap;html=1;fontSize=60;fillColor=none;" vertex="1" parent="Rquj8ajDDeOmUkiDkYnA-44">
          <mxGeometry y="35" width="280" height="105" as="geometry" />
        </mxCell>
        <mxCell id="Rquj8ajDDeOmUkiDkYnA-40" value="&lt;div align=&quot;left&quot;&gt;Countryman Associates&lt;br&gt;&lt;/div&gt;" style="text;html=1;strokeColor=none;fillColor=none;align=left;verticalAlign=middle;whiteSpace=wrap;rounded=0;" parent="Rquj8ajDDeOmUkiDkYnA-44" vertex="1">
          <mxGeometry x="20" y="40" width="190" height="30" as="geometry" />
        </mxCell>
        <mxCell id="Rquj8ajDDeOmUkiDkYnA-41" value="Element ID: #001" style="text;html=1;strokeColor=none;fillColor=none;align=left;verticalAlign=middle;whiteSpace=wrap;rounded=0;" parent="Rquj8ajDDeOmUkiDkYnA-44" vertex="1">
          <mxGeometry x="20" y="70" width="190" height="30" as="geometry" />
        </mxCell>
        <mxCell id="Rquj8ajDDeOmUkiDkYnA-42" value="[COLOR] Element [COLOR] Band" style="text;html=1;strokeColor=none;fillColor=none;align=left;verticalAlign=middle;whiteSpace=wrap;rounded=0;" parent="Rquj8ajDDeOmUkiDkYnA-44" vertex="1">
          <mxGeometry x="20" y="100" width="190" height="30" as="geometry" />
        </mxCell>
        <mxCell id="Rquj8ajDDeOmUkiDkYnA-45" value="B3/E6" style="text;html=1;strokeColor=none;fillColor=none;align=center;verticalAlign=middle;whiteSpace=wrap;rounded=0;fontSize=40;" parent="Rquj8ajDDeOmUkiDkYnA-44" vertex="1">
          <mxGeometry x="170" y="40" width="100" height="60" as="geometry" />
        </mxCell>
        <mxCell id="Rquj8ajDDeOmUkiDkYnA-46" value="" style="rounded=0;whiteSpace=wrap;html=1;fontSize=40;" parent="1" vertex="1">
          <mxGeometry x="400" y="720" width="220" height="120" as="geometry" />
        </mxCell>
        <mxCell id="Rquj8ajDDeOmUkiDkYnA-47" value="&lt;div&gt;Tested GOOD/BAD&lt;/div&gt;&lt;div&gt;&lt;br&gt;&lt;/div&gt;&lt;div&gt;DATE: 01/01/1981&lt;br&gt;&lt;/div&gt;" style="text;html=1;strokeColor=none;fillColor=none;align=center;verticalAlign=middle;whiteSpace=wrap;rounded=0;fontSize=20;" parent="1" vertex="1">
          <mxGeometry x="410" y="730" width="200" height="100" as="geometry" />
        </mxCell>
        <mxCell id="3Zzp8ogsjRMphogeBh2j-1" value="Example Labels" style="text;html=1;strokeColor=none;fillColor=none;align=center;verticalAlign=middle;whiteSpace=wrap;rounded=0;fontSize=60;" vertex="1" parent="1">
          <mxGeometry x="60" y="870" width="450" height="60" as="geometry" />
        </mxCell>
        <mxCell id="3Zzp8ogsjRMphogeBh2j-6" value="&lt;div&gt;Color of Top Bar is color of Element (Tan/Cocoa/Beige)&lt;/div&gt;&lt;div align=&quot;left&quot;&gt;Color of Strip is Sensitivity Color Band&lt;br&gt;&lt;/div&gt;" style="text;html=1;align=center;verticalAlign=middle;resizable=0;points=[];autosize=1;strokeColor=none;fillColor=none;fontSize=20;" vertex="1" parent="1">
          <mxGeometry x="60" y="930" width="510" height="60" as="geometry" />
        </mxCell>
      </root>
    </mxGraphModel>
  </diagram>
</mxfile>
